<svg id="icons" enable-background="new 0 0 64 64" width="63.93" height="63.93" viewBox="0 0 63.93 63.93" xmlns="http://www.w3.org/2000/svg"><path d="m29.465 23.984v12.991h-12.99v-5.969-7.022z" fill="#fff"/><path d="m29.465 37.025v12.991h-12.99v-12.991-.05h12.99z" fill="#fff"/><path d="m28.484 11.965-6 6v.019h-.009-3.991l4-4v-2.019z" fill="#d7e9ff"/><path d="m16.475 37.025v12.991h-12.991v-12.991l.051-.05h12.94z" fill="#fff"/><path d="m48.484 17.984-6 6h-12.99l-.01-.009 5.981-5.991h.029z" fill="#d7e9ff"/><path d="m16.475 6.984v13h-6.961-6.03v-13z" fill="#fff"/><path d="m22.475 17.984-6 6v7.022h-6.961v-11.022h6.961.009l2-2z" fill="#94c1ff"/><path d="m16.475 50.025v12.991h-12.991v-12.991-.009h12.991z" fill="#fff"/><path d="m16.475 31.006v5.969h-12.94l5.979-5.969z" fill="#d7e9ff"/><path d="m48.484 44.016v.009l-6 5.991v-12.991-.05l5.981-5.969.019.019v12.969z" fill="#94c1ff"/><path d="m48.484 57.006v.01l-6 6v-12.991-.009l6-5.991z" fill="#94c1ff"/><path d="m29.494 23.984v12.991h12.99v.05 12.991h-12.99-.029v-12.991-.05-12.991l.019-.009z" fill="#fff"/><path d="m46.494 5.945h.031.969l-6 6v.02h-.01-.98-.02-11.98v-.02l6-6z" fill="#d7e9ff"/><path d="m29.494 50.016h12.99v.009 12.991h-12.99-.029v-12.991-.009z" fill="#fff"/><path d="m35.465 17.984-5.981 5.991-.019.009h-12.99l6-6h.009z" fill="#d7e9ff"/><path d="m48.504 43.994 6-5.988v12.978.022l-6 6h-.02v-12.981-.009-.022z" fill="#94c1ff"/><path d="m48.484 30.955v.02l-.019.031-5.981 5.969v-12.991l6-6z" fill="#94c1ff"/><path d="m22.484 11.965v2.019l-4 4-2 2h-.009v-13l6-6h.009v4.961z" fill="#94c1ff"/><path d="m60.516 5.945v13l-6 6h-.012v-12.98l.012-.02z" fill="#94c1ff"/><path d="m29.465 50.025v12.991h-12.99v-12.991-.009h12.99z" fill="#fff"/><path d="m54.504 11.965-6 6-.02.019h-12.99-.029l.019-.019 6-6h.01z" fill="#d7e9ff"/><path d="m22.475.984-6 6h-12.991l6-6z" fill="#d7e9ff"/><path d="m54.504 26.006v11.978.01.012l-6 5.988h-.02v-12.969l-.019-.019.019-.031v-.02h.02l6-6v1.01z" fill="#94c1ff"/><path d="m60.516 5.945-6 6-.012.02h-13.01v-.02l6-6z" fill="#d7e9ff"/><path d="m40.484 11.965h.02.98l-6 6-.019.019h-12.981v-.019l6-6h.01.01z" fill="#d7e9ff"/><path d="m33.504 5.945h1l-6 6v.02h-.01-.01-6v-6.02z" fill="#d7e9ff"/><path d="m54.504 24.945v.01l-6 6h-.02v-12.971l.02-.019 6-6z" fill="#94c1ff"/><path d="m54.516 24.945 6-6v1 .039 12l-6 6h-.012v-11.978-.041-1.01-.01z" fill="#94c1ff"/><path d="m54.516 37.984 6-6v1 .01 11.99l-6 6h-.012v-12.978-.012-.01z" fill="#94c1ff"/><path d="m29.494 23.984h12.99v12.99h-12.99z" fill="#fff"/><g fill="#116fff"><path d="m29.466 37.975h-12.993c-.553 0-1-.447-1-1v-12.995c0-.553.447-1 1-1h12.993c.553 0 1 .447 1 1v12.994c0 .553-.447 1.001-1 1.001zm-11.993-2h10.993v-10.995h-10.993z"/><path d="m35.466 18.98h-12.993c-.553 0-1-.447-1-1s.447-1 1-1h12.993c.553 0 1 .447 1 1s-.447 1-1 1z"/><path d="m16.473 24.98c-.256 0-.512-.098-.707-.293-.391-.391-.391-1.023 0-1.414l6-6c.391-.391 1.023-.391 1.414 0s.391 1.023 0 1.414l-6 6c-.196.196-.451.293-.707.293z"/><path d="m29.466 24.98c-.256 0-.512-.098-.707-.293-.391-.391-.391-1.023 0-1.414l6-6c.391-.391 1.023-.391 1.414 0s.391 1.023 0 1.414l-6 6c-.195.196-.451.293-.707.293z"/><path d="m40.48 12.965h-11.992c-.553 0-1-.447-1-1s.447-1 1-1h11.992c.553 0 1 .447 1 1s-.447 1-1 1z"/><path d="m22.488 18.965c-.256 0-.512-.098-.707-.293-.391-.391-.391-1.023 0-1.414l6-6c.391-.391 1.023-.391 1.414 0s.391 1.023 0 1.414l-6 6c-.195.195-.451.293-.707.293z"/><path d="m35.481 18.965c-.256 0-.512-.098-.707-.293-.391-.391-.391-1.023 0-1.414l6-6c.391-.391 1.023-.391 1.414 0s.391 1.023 0 1.414l-6 6c-.195.195-.451.293-.707.293z"/><path d="m46.496 6.947h-12.993c-.553 0-1-.447-1-1s.447-1 1-1h12.993c.553 0 1 .447 1 1s-.447 1-1 1z"/><path d="m41.497 12.947c-.256 0-.512-.098-.707-.293-.391-.391-.391-1.023 0-1.414l6-6c.391-.391 1.023-.391 1.414 0s.391 1.023 0 1.414l-6 6c-.195.196-.451.293-.707.293z"/><path d="m16.478 20.979h-12.994c-.553 0-1-.447-1-1v-12.995c0-.553.447-1 1-1h12.993c.553 0 1 .447 1 1v12.994c.001.553-.447 1.001-.999 1.001zm-11.994-2h10.993v-10.995h-10.993z"/><path d="m22.478 1.984h-12.994c-.553 0-1-.447-1-1s.447-1 1-1h12.993c.553 0 1 .447 1 1s-.447 1-.999 1z"/><path d="m3.484 7.984c-.256 0-.512-.098-.707-.293-.391-.391-.391-1.023 0-1.414l6-6c.391-.391 1.023-.391 1.414 0s.391 1.023 0 1.414l-6 6c-.195.196-.451.293-.707.293z"/><path d="m28.493 12.965h-6.01c-.553 0-1-.447-1-1s.447-1 1-1h6.01c.553 0 1 .447 1 1s-.447 1-1 1z"/><path d="m33.508 6.947h-11.035c-.553 0-1-.447-1-1s.447-1 1-1h11.035c.553 0 1 .447 1 1s-.447 1-1 1z"/><path d="m28.509 12.947c-.256 0-.512-.098-.707-.293-.391-.391-.391-1.023 0-1.414l6-6c.391-.391 1.023-.391 1.414 0s.391 1.023 0 1.414l-6 6c-.195.196-.451.293-.707.293z"/><path d="m42.484 37.975h-12.993c-.553 0-1-.447-1-1v-12.995c0-.553.447-1 1-1h12.993c.553 0 1 .447 1 1v12.994c0 .553-.447 1.001-1 1.001zm-11.993-2h10.993v-10.995h-10.993z"/><path d="m48.484 31.975c-.553 0-1-.447-1-1v-11.995h-11.993c-.553 0-1-.447-1-1s.447-1 1-1h12.993c.553 0 1 .447 1 1v12.994c0 .553-.447 1.001-1 1.001z"/><path d="m42.484 24.98c-.256 0-.512-.098-.707-.293-.391-.391-.391-1.023 0-1.414l6-6c.391-.391 1.023-.391 1.414 0s.391 1.023 0 1.414l-6 6c-.195.196-.451.293-.707.293z"/><path d="m42.484 37.975c-.256 0-.512-.098-.707-.293-.391-.391-.391-1.023 0-1.414l6-6c.391-.391 1.023-.391 1.414 0s.391 1.023 0 1.414l-6 6c-.195.195-.451.293-.707.293z"/><path d="m54.5 26.959c-.553 0-1-.447-1-1v-12.994h-12.994c-.553 0-1-.447-1-1s.447-1 1-1h13.994c.553 0 1 .447 1 1v13.994c0 .553-.447 1-1 1z"/><path d="m48.5 18.965c-.256 0-.512-.098-.707-.293-.391-.391-.391-1.023 0-1.414l6-6c.391-.391 1.023-.391 1.414 0s.391 1.023 0 1.414l-6 6c-.195.195-.451.293-.707.293z"/><path d="m48.5 31.957c-.256 0-.512-.098-.707-.293-.391-.391-.391-1.023 0-1.414l6-6c.391-.391 1.023-.391 1.414 0s.391 1.023 0 1.414l-6 6c-.195.195-.451.293-.707.293z"/><path d="m60.516 20.941c-.553 0-1-.447-1-1v-12.994h-12.995c-.553 0-1-.447-1-1s.447-1 1-1h13.994c.553 0 1 .447 1 1v13.994c.001.553-.447 1-.999 1z"/><path d="m54.516 12.947c-.256 0-.512-.098-.707-.293-.391-.391-.391-1.023 0-1.414l6-6c.391-.391 1.023-.391 1.414 0s.391 1.023 0 1.414l-6 6c-.196.196-.452.293-.707.293z"/><path d="m54.516 25.941c-.256 0-.512-.098-.707-.293-.391-.391-.391-1.023 0-1.414l6-6c.391-.391 1.023-.391 1.414 0s.391 1.023 0 1.414l-6 6c-.196.196-.452.293-.707.293z"/><path d="m29.466 51.012h-12.993c-.553 0-1-.447-1-1v-12.992c0-.553.447-1 1-1s1 .447 1 1v11.992h10.993v-11.992c0-.553.447-1 1-1s1 .447 1 1v12.992c0 .552-.447 1-1 1z"/></g><path d="" style="fill:none;stroke:#116fff;stroke-width:2;stroke-linecap:round;stroke-linejoin:round;stroke-miterlimit:10"/><path d="m16.478 51.012h-12.994c-.553 0-1-.447-1-1v-12.992c0-.553.447-1 1-1s1 .447 1 1v11.992h10.993v-11.992c0-.553.447-1 1-1s1 .447 1 1v12.992c.001.552-.447 1-.999 1z" fill="#116fff"/><path d="m42.484 51.012h-12.993c-.553 0-1-.447-1-1v-12.992c0-.553.447-1 1-1s1 .447 1 1v11.992h10.993v-11.992c0-.553.447-1 1-1s1 .447 1 1v12.992c0 .552-.447 1-1 1z" fill="#116fff"/><path d="m48.484 45.012c-.553 0-1-.447-1-1v-12.992c0-.553.447-1 1-1s1 .447 1 1v12.992c0 .552-.447 1-1 1z" fill="#116fff"/><path d="" style="fill:none;stroke:#116fff;stroke-width:2;stroke-linecap:round;stroke-linejoin:round;stroke-miterlimit:10"/><path d="m42.484 51.012c-.256 0-.512-.098-.707-.293-.391-.391-.391-1.023 0-1.414l6-6c.391-.391 1.023-.391 1.414 0s.391 1.023 0 1.414l-6 6c-.195.195-.451.293-.707.293z" fill="#116fff"/><path d="m54.5 38.996c-.553 0-1-.447-1-1v-11.992c0-.553.447-1 1-1s1 .447 1 1v11.992c0 .553-.447 1-1 1z" fill="#116fff"/><path d="m48.5 44.996c-.256 0-.512-.098-.707-.293-.391-.391-.391-1.023 0-1.414l6-6c.391-.391 1.023-.391 1.414 0s.391 1.023 0 1.414l-6 6c-.195.195-.451.293-.707.293z" fill="#116fff"/><path d="m60.516 33.98c-.553 0-1-.447-1-1v-12.994c0-.553.447-1 1-1s1 .447 1 1v12.994c0 .553-.448 1-1 1z" fill="#116fff"/><path d="m54.516 38.979c-.256 0-.512-.098-.707-.293-.391-.391-.391-1.023 0-1.414l6-6c.391-.391 1.023-.391 1.414 0s.391 1.023 0 1.414l-6 6c-.196.195-.452.293-.707.293z" fill="#116fff"/><path d="m29.466 64.016h-12.993c-.553 0-1-.447-1-1v-12.995c0-.553.447-1 1-1s1 .447 1 1v11.994h10.993v-11.994c0-.553.447-1 1-1s1 .447 1 1v12.994c0 .553-.447 1.001-1 1.001z" fill="#116fff"/><path d="" style="fill:none;stroke:#116fff;stroke-width:2;stroke-linecap:round;stroke-linejoin:round;stroke-miterlimit:10"/><path d="m16.478 64.016h-12.994c-.553 0-1-.447-1-1v-12.995c0-.553.447-1 1-1s1 .447 1 1v11.994h10.993v-11.994c0-.553.447-1 1-1s1 .447 1 1v12.994c.001.553-.447 1.001-.999 1.001z" fill="#116fff"/><path d="m42.484 64.016h-12.993c-.553 0-1-.447-1-1v-12.995c0-.553.447-1 1-1s1 .447 1 1v11.994h10.993v-11.994c0-.553.447-1 1-1s1 .447 1 1v12.994c0 .553-.447 1.001-1 1.001z" fill="#116fff"/><path d="m48.484 58.016c-.553 0-1-.447-1-1v-12.995c0-.553.447-1 1-1s1 .447 1 1v12.994c0 .553-.447 1.001-1 1.001z" fill="#116fff"/><path d="" style="fill:none;stroke:#116fff;stroke-width:2;stroke-linecap:round;stroke-linejoin:round;stroke-miterlimit:10"/><path d="m42.484 64.016c-.256 0-.512-.098-.707-.293-.391-.391-.391-1.023 0-1.414l6-6c.391-.391 1.023-.391 1.414 0s.391 1.023 0 1.414l-6 6c-.195.195-.451.293-.707.293z" fill="#116fff"/><path d="m54.5 51.998c-.553 0-1-.447-1-1v-12.992c0-.553.447-1 1-1s1 .447 1 1v12.992c0 .553-.447 1-1 1z" fill="#116fff"/><path d="m48.5 57.998c-.256 0-.512-.098-.707-.293-.391-.391-.391-1.023 0-1.414l6-6c.391-.391 1.023-.391 1.414 0s.391 1.023 0 1.414l-6 6c-.195.195-.451.293-.707.293z" fill="#116fff"/><path d="m60.516 45.982c-.553 0-1-.447-1-1v-11.992c0-.553.447-1 1-1s1 .447 1 1v11.992c0 .553-.448 1-1 1z" fill="#116fff"/><path d="m54.516 51.982c-.256 0-.512-.098-.707-.293-.391-.391-.391-1.023 0-1.414l6-6c.391-.391 1.023-.391 1.414 0s.391 1.023 0 1.414l-6 6c-.196.196-.452.293-.707.293z" fill="#116fff"/><path d="m16.473 37.975h-12.989c-.553 0-1-.447-1-1s.447-1 1-1h12.988c.553 0 1 .447 1 1s-.447 1-.999 1z" fill="#116fff"/><path d="m22.473 18.98h-4.003c-.553 0-1-.447-1-1s.447-1 1-1h4.003c.553 0 1 .447 1 1s-.448 1-1 1z" fill="#116fff"/><path d="m3.484 38.02c-.257 0-.513-.098-.708-.294-.39-.391-.39-1.024.002-1.414l6.03-6.016c.391-.39 1.023-.39 1.414.002.39.391.39 1.024-.002 1.414l-6.03 6.016c-.195.194-.45.292-.706.292z" fill="#116fff"/><path d="m9.515 32.004c-.553 0-1-.447-1-1v-11.025c0-.553.447-1 1-1s1 .447 1 1v11.025c0 .553-.448 1-1 1z" fill="#116fff"/><path d="m16.473 32.004h-6.958c-.553 0-1-.447-1-1s.447-1 1-1h6.958c.553 0 1 .447 1 1s-.448 1-1 1z" fill="#116fff"/><path d="m22.483 14.979c-.553 0-1-.447-1-1v-12.995c0-.553.447-1 1-1s1 .447 1 1v12.994c0 .553-.447 1.001-1 1.001z" fill="#116fff"/><path d="m16.48 20.98c-.256 0-.512-.098-.707-.293-.391-.391-.391-1.023 0-1.414l6.003-6.002c.391-.391 1.023-.391 1.414 0s.391 1.023 0 1.414l-6.003 6.002c-.195.196-.451.293-.707.293z" fill="#116fff"/><path d="m16.478 7.984c-.256 0-.512-.098-.707-.293-.391-.391-.391-1.023 0-1.414l6-6c.391-.391 1.023-.391 1.414 0s.391 1.023 0 1.414l-6 6c-.196.196-.452.293-.707.293z" fill="#116fff"/></svg>